<?xml version="1.0" encoding="UTF-8" standalone="no"?>
<!DOCTYPE svg PUBLIC "-//W3C//DTD SVG 1.1//EN"
 "http://www.w3.org/Graphics/SVG/1.1/DTD/svg11.dtd">
<!-- Generated by graphviz version 2.43.0 (0)
 -->
<!-- Title: markov_chain Pages: 1 -->
<svg width="219pt" height="98pt"
 viewBox="0.00 0.00 219.00 98.00" xmlns="http://www.w3.org/2000/svg" xmlns:xlink="http://www.w3.org/1999/xlink">
<g id="graph0" class="graph" transform="scale(1 1) rotate(0) translate(4 94)">
<title>markov_chain</title>
<polygon fill="white" stroke="transparent" points="-4,4 -4,-94 215,-94 215,4 -4,4"/>
<!-- A -->
<g id="node1" class="node">
<title>A</title>
<ellipse fill="none" stroke="black" cx="18" cy="-45" rx="18" ry="18"/>
<text text-anchor="middle" x="18" y="-41.3" font-family="Helvetica,Arial,sans-serif" font-size="14.00">A</text>
</g>
<!-- B -->
<g id="node2" class="node">
<title>B</title>
<ellipse fill="none" stroke="black" cx="98" cy="-72" rx="18" ry="18"/>
<text text-anchor="middle" x="98" y="-68.3" font-family="Helvetica,Arial,sans-serif" font-size="14.00">B</text>
</g>
<!-- A&#45;&gt;B -->
<g id="edge1" class="edge">
<title>A&#45;&gt;B</title>
<path fill="none" stroke="black" d="M35.16,-50.59C45.62,-54.21 59.46,-59.01 71.4,-63.14"/>
<polygon fill="black" stroke="black" points="70.26,-66.45 80.86,-66.41 72.55,-59.83 70.26,-66.45"/>
<text text-anchor="middle" x="58" y="-62.8" font-family="Helvetica,Arial,sans-serif" font-size="14.00">2</text>
</g>
<!-- C -->
<g id="node3" class="node">
<title>C</title>
<ellipse fill="none" stroke="black" cx="98" cy="-18" rx="18" ry="18"/>
<text text-anchor="middle" x="98" y="-14.3" font-family="Helvetica,Arial,sans-serif" font-size="14.00">C</text>
</g>
<!-- A&#45;&gt;C -->
<g id="edge2" class="edge">
<title>A&#45;&gt;C</title>
<path fill="none" stroke="black" d="M35.16,-39.41C45.62,-35.79 59.46,-30.99 71.4,-26.86"/>
<polygon fill="black" stroke="black" points="72.55,-30.17 80.86,-23.59 70.26,-23.55 72.55,-30.17"/>
<text text-anchor="middle" x="58" y="-35.8" font-family="Helvetica,Arial,sans-serif" font-size="14.00">1</text>
</g>
<!-- D -->
<g id="node4" class="node">
<title>D</title>
<ellipse fill="none" stroke="black" cx="193" cy="-45" rx="18" ry="18"/>
<text text-anchor="middle" x="193" y="-41.3" font-family="Helvetica,Arial,sans-serif" font-size="14.00">D</text>
</g>
<!-- B&#45;&gt;D -->
<g id="edge3" class="edge">
<title>B&#45;&gt;D</title>
<path fill="none" stroke="black" d="M115.63,-67.17C129.51,-63.14 149.56,-57.32 165.63,-52.65"/>
<polygon fill="black" stroke="black" points="166.89,-55.93 175.52,-49.79 164.94,-49.21 166.89,-55.93"/>
<text text-anchor="middle" x="145.5" y="-64.8" font-family="Helvetica,Arial,sans-serif" font-size="14.00">100</text>
</g>
<!-- C&#45;&gt;D -->
<g id="edge4" class="edge">
<title>C&#45;&gt;D</title>
<path fill="none" stroke="black" d="M115.63,-22.83C129.51,-26.86 149.56,-32.68 165.63,-37.35"/>
<polygon fill="black" stroke="black" points="164.94,-40.79 175.52,-40.21 166.89,-34.07 164.94,-40.79"/>
<text text-anchor="middle" x="145.5" y="-37.8" font-family="Helvetica,Arial,sans-serif" font-size="14.00">1</text>
</g>
</g>
</svg>
